<?xml version="1.0" encoding="UTF-8"?>
<svg xmlns="http://www.w3.org/2000/svg" width="2172" height="724" viewBox="0 0 2172 724" role="img" aria-labelledby="title desc">
  <title id="title">Aurore Life Sciences logo</title>
  <desc id="desc">Vector-traced Aurore Life Sciences logo with corrected right-side spacing.</desc>
  <g fill-rule="evenodd" clip-rule="evenodd">
    <path fill="#0d7e43" d="M 1088.0 272.0 L 1025.0 272.0 L 1025.0 417.0 L 1022.0 433.0 L 1016.0 447.0 L 1008.0 456.0 L 999.0 462.0 L 981.0 467.0 L 962.0 466.0 L 948.0 460.0 L 940.0 452.0 L 936.0 445.0 L 933.0 435.0 L 931.0 419.0 L 931.0 384.0 L 933.0 382.0 L 969.0 383.0 L 969.0 381.0 L 937.0 377.0 L 931.0 375.0 L 931.0 272.0 L 868.0 272.0 L 868.0 370.0 L 867.0 371.0 L 833.0 370.0 L 832.0 369.0 L 800.0 369.0 L 799.0 370.0 L 746.0 372.0 L 698.0 378.0 L 666.0 384.0 L 620.0 396.0 L 586.0 407.0 L 550.0 421.0 L 516.0 437.0 L 477.0 459.0 L 451.0 476.0 L 411.0 506.0 L 386.0 528.0 L 357.0 557.0 L 324.0 596.0 L 313.0 611.0 L 313.0 613.0 L 413.0 613.0 L 433.0 585.0 L 447.0 568.0 L 483.0 531.0 L 514.0 505.0 L 542.0 485.0 L 589.0 457.0 L 631.0 437.0 L 683.0 418.0 L 740.0 403.0 L 744.0 405.0 L 801.0 510.0 L 881.0 510.0 L 881.0 507.0 L 869.0 486.0 L 829.0 406.0 L 825.0 395.0 L 823.0 393.0 L 824.0 388.0 L 861.0 384.0 L 871.0 384.0 L 872.0 385.0 L 872.0 445.0 L 874.0 461.0 L 878.0 474.0 L 884.0 486.0 L 897.0 500.0 L 916.0 511.0 L 941.0 517.0 L 961.0 517.0 L 980.0 513.0 L 996.0 506.0 L 1005.0 500.0 L 1019.0 486.0 L 1025.0 477.0 L 1028.0 478.0 L 1028.0 510.0 L 1088.0 510.0 Z M 1670.0 267.0 L 1648.0 268.0 L 1631.0 273.0 L 1623.0 277.0 L 1613.0 284.0 L 1602.0 295.0 L 1590.0 315.0 L 1587.0 314.0 L 1587.0 272.0 L 1528.0 272.0 L 1528.0 510.0 L 1589.0 510.0 L 1589.0 399.0 L 1593.0 369.0 L 1604.0 347.0 L 1615.0 336.0 L 1621.0 332.0 L 1633.0 327.0 L 1649.0 324.0 L 1659.0 324.0 L 1675.0 327.0 L 1676.0 318.0 L 1676.0 269.0 Z M 1252.0 268.0 L 1248.0 267.0 L 1224.0 268.0 L 1210.0 272.0 L 1198.0 278.0 L 1181.0 292.0 L 1176.0 298.0 L 1167.0 315.0 L 1164.0 314.0 L 1164.0 272.0 L 1105.0 272.0 L 1105.0 510.0 L 1166.0 510.0 L 1166.0 400.0 L 1168.0 380.0 L 1173.0 360.0 L 1182.0 345.0 L 1193.0 335.0 L 1204.0 329.0 L 1226.0 324.0 L 1238.0 324.0 L 1252.0 327.0 Z M 1801.0 266.0 L 1772.0 271.0 L 1746.0 282.0 L 1729.0 294.0 L 1714.0 310.0 L 1703.0 327.0 L 1693.0 351.0 L 1688.0 377.0 L 1688.0 409.0 L 1692.0 431.0 L 1698.0 448.0 L 1704.0 460.0 L 1715.0 476.0 L 1731.0 492.0 L 1744.0 501.0 L 1756.0 507.0 L 1773.0 513.0 L 1798.0 517.0 L 1821.0 517.0 L 1841.0 514.0 L 1858.0 509.0 L 1877.0 500.0 L 1887.0 493.0 L 1898.0 483.0 L 1910.0 467.0 L 1920.0 446.0 L 1921.0 438.0 L 1866.0 438.0 L 1861.0 448.0 L 1851.0 458.0 L 1839.0 465.0 L 1830.0 468.0 L 1817.0 470.0 L 1798.0 469.0 L 1779.0 462.0 L 1766.0 451.0 L 1756.0 434.0 L 1752.0 419.0 L 1751.0 407.0 L 1752.0 406.0 L 1927.0 406.0 L 1927.0 382.0 L 1923.0 355.0 L 1914.0 329.0 L 1901.0 307.0 L 1887.0 292.0 L 1870.0 280.0 L 1845.0 270.0 L 1819.0 266.0 Z M 1752.0 360.0 L 1755.0 349.0 L 1760.0 338.0 L 1765.0 331.0 L 1776.0 321.0 L 1786.0 316.0 L 1798.0 313.0 L 1818.0 313.0 L 1829.0 316.0 L 1837.0 320.0 L 1848.0 330.0 L 1853.0 337.0 L 1859.0 350.0 L 1861.0 358.0 L 1861.0 365.0 L 1860.0 366.0 L 1753.0 366.0 Z M 631.0 87.0 L 629.0 87.0 L 530.0 255.0 L 467.0 359.0 L 437.0 376.0 L 379.0 414.0 L 342.0 441.0 L 302.0 474.0 L 277.0 497.0 L 244.0 531.0 L 214.0 567.0 L 197.0 590.0 L 193.0 598.0 L 195.0 598.0 L 207.0 584.0 L 259.0 534.0 L 291.0 508.0 L 328.0 481.0 L 397.0 439.0 L 460.0 408.0 L 509.0 388.0 L 544.0 376.0 L 608.0 359.0 L 651.0 351.0 L 701.0 345.0 L 725.0 344.0 L 726.0 343.0 L 750.0 343.0 L 751.0 342.0 L 784.0 343.0 L 782.0 337.0 L 723.0 242.0 Z M 631.0 191.0 L 684.0 304.0 L 633.0 310.0 L 568.0 323.0 L 567.0 319.0 L 628.0 192.0 Z"/>
    <path fill="#febf17" d="M 1326.0 277.0 L 1304.0 291.0 L 1286.0 308.0 L 1274.0 325.0 L 1263.0 348.0 L 1256.0 373.0 L 1254.0 398.0 L 1257.0 425.0 L 1264.0 447.0 L 1279.0 474.0 L 1293.0 490.0 L 1317.0 508.0 L 1329.0 514.0 L 1333.0 514.0 L 1333.0 512.0 L 1328.0 505.0 L 1323.0 490.0 L 1323.0 468.0 L 1327.0 454.0 L 1334.0 441.0 L 1348.0 427.0 L 1366.0 418.0 L 1376.0 416.0 L 1389.0 416.0 L 1405.0 420.0 L 1420.0 429.0 L 1431.0 440.0 L 1441.0 459.0 L 1444.0 474.0 L 1444.0 483.0 L 1439.0 503.0 L 1433.0 513.0 L 1433.0 515.0 L 1436.0 515.0 L 1454.0 505.0 L 1478.0 484.0 L 1492.0 465.0 L 1503.0 441.0 L 1508.0 422.0 L 1509.0 401.0 L 1507.0 394.0 L 1507.0 383.0 L 1504.0 367.0 L 1496.0 343.0 L 1483.0 319.0 L 1477.0 311.0 L 1459.0 293.0 L 1438.0 279.0 L 1424.0 273.0 L 1398.0 267.0 L 1374.0 266.0 L 1350.0 269.0 Z"/>
    <path fill="#9d9b9c" d="M 1800.0 545.0 L 1800.0 601.0 L 1839.0 601.0 L 1839.0 596.0 L 1831.0 596.0 L 1830.0 595.0 L 1811.0 596.0 L 1807.0 594.0 L 1807.0 576.0 L 1808.0 575.0 L 1835.0 575.0 L 1835.0 569.0 L 1808.0 569.0 L 1807.0 568.0 L 1807.0 552.0 L 1808.0 551.0 L 1837.0 551.0 L 1838.0 550.0 L 1838.0 545.0 Z M 1659.0 545.0 L 1659.0 601.0 L 1666.0 601.0 L 1666.0 562.0 L 1667.0 561.0 L 1669.0 561.0 L 1671.0 563.0 L 1693.0 597.0 L 1695.0 601.0 L 1703.0 601.0 L 1703.0 545.0 L 1697.0 545.0 L 1697.0 585.0 L 1696.0 586.0 L 1694.0 586.0 L 1691.0 583.0 L 1687.0 575.0 L 1673.0 555.0 L 1667.0 545.0 Z M 1597.0 545.0 L 1597.0 567.0 L 1596.0 568.0 L 1596.0 571.0 L 1597.0 572.0 L 1597.0 575.0 L 1596.0 576.0 L 1596.0 582.0 L 1597.0 583.0 L 1596.0 595.0 L 1597.0 596.0 L 1597.0 601.0 L 1636.0 601.0 L 1636.0 596.0 L 1627.0 596.0 L 1626.0 595.0 L 1605.0 596.0 L 1603.0 594.0 L 1603.0 576.0 L 1604.0 575.0 L 1633.0 575.0 L 1633.0 569.0 L 1604.0 569.0 L 1603.0 568.0 L 1603.0 552.0 L 1604.0 551.0 L 1635.0 551.0 L 1636.0 550.0 L 1636.0 545.0 Z M 1564.0 545.0 L 1564.0 601.0 L 1571.0 601.0 L 1571.0 545.0 Z M 1332.0 545.0 L 1332.0 601.0 L 1372.0 601.0 L 1372.0 596.0 L 1340.0 596.0 L 1339.0 595.0 L 1339.0 576.0 L 1340.0 575.0 L 1369.0 575.0 L 1369.0 569.0 L 1340.0 569.0 L 1339.0 568.0 L 1339.0 552.0 L 1340.0 551.0 L 1371.0 551.0 L 1371.0 545.0 Z M 1309.0 545.0 L 1272.0 545.0 L 1272.0 601.0 L 1279.0 601.0 L 1279.0 576.0 L 1280.0 575.0 L 1305.0 575.0 L 1305.0 569.0 L 1280.0 569.0 L 1279.0 568.0 L 1279.0 552.0 L 1280.0 551.0 L 1309.0 550.0 Z M 1238.0 545.0 L 1238.0 601.0 L 1245.0 601.0 L 1245.0 545.0 Z M 1181.0 545.0 L 1181.0 601.0 L 1216.0 601.0 L 1216.0 596.0 L 1189.0 596.0 L 1188.0 595.0 L 1188.0 545.0 Z M 1877.0 544.0 L 1868.0 548.0 L 1866.0 550.0 L 1863.0 558.0 L 1864.0 565.0 L 1869.0 571.0 L 1873.0 573.0 L 1888.0 576.0 L 1895.0 579.0 L 1898.0 583.0 L 1898.0 589.0 L 1894.0 594.0 L 1890.0 596.0 L 1883.0 597.0 L 1882.0 596.0 L 1877.0 596.0 L 1870.0 591.0 L 1867.0 583.0 L 1861.0 583.0 L 1861.0 587.0 L 1863.0 593.0 L 1869.0 599.0 L 1876.0 602.0 L 1891.0 602.0 L 1898.0 599.0 L 1902.0 596.0 L 1905.0 590.0 L 1905.0 581.0 L 1903.0 577.0 L 1899.0 573.0 L 1889.0 569.0 L 1881.0 568.0 L 1873.0 565.0 L 1870.0 561.0 L 1870.0 557.0 L 1871.0 555.0 L 1877.0 550.0 L 1888.0 550.0 L 1891.0 551.0 L 1895.0 555.0 L 1896.0 560.0 L 1903.0 560.0 L 1903.0 557.0 L 1900.0 550.0 L 1895.0 546.0 L 1889.0 544.0 Z M 1748.0 544.0 L 1738.0 548.0 L 1730.0 557.0 L 1727.0 566.0 L 1727.0 579.0 L 1728.0 580.0 L 1728.0 584.0 L 1732.0 593.0 L 1737.0 598.0 L 1746.0 602.0 L 1760.0 602.0 L 1767.0 599.0 L 1773.0 593.0 L 1776.0 586.0 L 1776.0 583.0 L 1770.0 582.0 L 1769.0 586.0 L 1766.0 591.0 L 1761.0 595.0 L 1758.0 596.0 L 1747.0 596.0 L 1742.0 593.0 L 1736.0 585.0 L 1735.0 578.0 L 1734.0 577.0 L 1735.0 564.0 L 1738.0 557.0 L 1742.0 553.0 L 1748.0 550.0 L 1758.0 550.0 L 1761.0 551.0 L 1766.0 555.0 L 1769.0 561.0 L 1774.0 561.0 L 1775.0 560.0 L 1775.0 557.0 L 1773.0 553.0 L 1767.0 547.0 L 1763.0 545.0 L 1760.0 545.0 L 1759.0 544.0 Z M 1511.0 544.0 L 1500.0 549.0 L 1495.0 555.0 L 1491.0 565.0 L 1491.0 581.0 L 1493.0 588.0 L 1499.0 597.0 L 1509.0 602.0 L 1522.0 602.0 L 1531.0 598.0 L 1535.0 594.0 L 1538.0 588.0 L 1539.0 583.0 L 1537.0 582.0 L 1532.0 582.0 L 1532.0 585.0 L 1530.0 589.0 L 1525.0 594.0 L 1521.0 596.0 L 1510.0 596.0 L 1506.0 594.0 L 1501.0 588.0 L 1498.0 580.0 L 1498.0 566.0 L 1500.0 560.0 L 1507.0 552.0 L 1511.0 550.0 L 1521.0 550.0 L 1524.0 551.0 L 1530.0 557.0 L 1532.0 561.0 L 1538.0 560.0 L 1538.0 557.0 L 1536.0 553.0 L 1530.0 547.0 L 1526.0 545.0 L 1523.0 545.0 L 1522.0 544.0 Z M 1442.0 544.0 L 1435.0 547.0 L 1431.0 551.0 L 1429.0 556.0 L 1430.0 566.0 L 1432.0 569.0 L 1439.0 573.0 L 1450.0 575.0 L 1460.0 579.0 L 1463.0 582.0 L 1464.0 587.0 L 1463.0 590.0 L 1458.0 595.0 L 1455.0 596.0 L 1443.0 596.0 L 1439.0 594.0 L 1435.0 590.0 L 1433.0 586.0 L 1433.0 583.0 L 1427.0 583.0 L 1427.0 589.0 L 1430.0 595.0 L 1436.0 600.0 L 1442.0 602.0 L 1456.0 602.0 L 1465.0 598.0 L 1469.0 593.0 L 1470.0 590.0 L 1470.0 581.0 L 1469.0 578.0 L 1464.0 573.0 L 1460.0 571.0 L 1439.0 565.0 L 1436.0 562.0 L 1436.0 556.0 L 1437.0 554.0 L 1442.0 550.0 L 1454.0 550.0 L 1461.0 556.0 L 1462.0 560.0 L 1468.0 560.0 L 1468.0 555.0 L 1465.0 550.0 L 1458.0 545.0 L 1455.0 545.0 L 1454.0 544.0 Z"/>
  </g>
</svg>
